<svg width="1600" height="1250" xmlns="http://www.w3.org/2000/svg">
  <defs>
    <!-- 渐变定义 -->
    <linearGradient id="bgGrad" x1="0%" y1="0%" x2="100%" y2="100%">
      <stop offset="0%" stop-color="#0B0F19"/>
      <stop offset="50%" stop-color="#111827"/>
      <stop offset="100%" stop-color="#070A10"/>
    </linearGradient>
    <linearGradient id="layerGrad" x1="0%" y1="0%" x2="0%" y2="100%">
      <stop offset="0%" stop-color="#1E293B" stop-opacity="0.8"/>
      <stop offset="100%" stop-color="#0F172A" stop-opacity="0.9"/>
    </linearGradient>
    <linearGradient id="ambari1Grad" x1="0%" y1="0%" x2="100%" y2="0%">
      <stop offset="0%" stop-color="#1E3A8A" stop-opacity="0.4"/>
      <stop offset="100%" stop-color="#1D4ED8" stop-opacity="0.1"/>
    </linearGradient>
    <linearGradient id="ambari2Grad" x1="0%" y1="0%" x2="100%" y2="0%">
      <stop offset="0%" stop-color="#0369A1" stop-opacity="0.4"/>
      <stop offset="100%" stop-color="#0284C7" stop-opacity="0.1"/>
    </linearGradient>
    <linearGradient id="ecGrad" x1="0%" y1="0%" x2="0%" y2="100%">
      <stop offset="0%" stop-color="#047857"/>
      <stop offset="100%" stop-color="#064E3B"/>
    </linearGradient>
    <linearGradient id="accentGrad" x1="0%" y1="0%" x2="100%" y2="0%">
      <stop offset="0%" stop-color="#38BDF8"/>
      <stop offset="100%" stop-color="#818CF8"/>
    </linearGradient>
    <linearGradient id="diagnosticGrad" x1="0%" y1="0%" x2="0%" y2="100%">
      <stop offset="0%" stop-color="#312E81" stop-opacity="0.6"/>
      <stop offset="100%" stop-color="#1E1B4B" stop-opacity="0.8"/>
    </linearGradient>
    <linearGradient id="monitorGrad" x1="0%" y1="0%" x2="0%" y2="100%">
      <stop offset="0%" stop-color="#3C1A1A" stop-opacity="0.6"/>
      <stop offset="100%" stop-color="#241111" stop-opacity="0.8"/>
    </linearGradient>
    <linearGradient id="cgroupGrad" x1="0%" y1="0%" x2="100%" y2="0%">
      <stop offset="0%" stop-color="#0F766E"/>
      <stop offset="100%" stop-color="#115E59"/>
    </linearGradient>

    <!-- 阴影与发光滤镜 -->
    <filter id="dropShadow" x="-10%" y="-10%" width="120%" height="120%">
      <feDropShadow dx="0" dy="8" stdDeviation="6" flood-color="#000000" flood-opacity="0.5"/>
    </filter>
    <filter id="glow" x="-20%" y="-20%" width="140%" height="140%">
      <feGaussianBlur stdDeviation="5" result="blur" />
      <feComposite in="SourceGraphic" in2="blur" operator="over" />
    </filter>
  </defs>

  <!-- 1. 整体背景 -->
  <rect width="1600" height="1250" fill="url(#bgGrad)"/>
  
  <!-- 网格装饰线（科技感纹理） -->
  <g stroke="#1E293B" stroke-width="0.5" opacity="0.3">
    <path d="M 0,150 L 1600,150 M 0,300 L 1600,300 M 0,630 L 1600,630 M 0,780 L 1600,780 M 0,1000 L 1600,1000" />
    <path d="M 430,0 L 430,1250 M 1170,0 L 1170,1250" />
  </g>

  <!-- ==================== 标题区 ==================== -->
  <g transform="translate(800, 65)" text-anchor="middle">
    <text font-family="system-ui, sans-serif" font-size="34" font-weight="800" fill="#FFFFFF" letter-spacing="3">
      Ambari 双实例架构 - 大数据超大规模集群拓扑图
    </text>
    <text font-family="system-ui, sans-serif" font-size="16" font-weight="400" fill="#94A3B8" dy="30" letter-spacing="1">
      HDFS 联邦机制/ EC 冷热分离降低25%存储 / Cgroups 内存超卖15% / 智能作业诊断 / 全栈可观测性支撑
    </text>
    <rect x="-250" y="45" width="500" height="3" fill="url(#accentGrad)" radius="1.5"/>
  </g>

  <!-- ==================== 层级 1：计算作业层 ==================== -->
  <g transform="translate(50, 160)" filter="url(#dropShadow)">
    <rect width="1500" height="110" rx="12" fill="url(#layerGrad)" stroke="#334155" stroke-width="1.5"/>
    <rect x="0" y="0" width="120" height="30" rx="6" fill="#1E40AF" opacity="0.8"/>
    <text x="15" y="20" font-family="system-ui, sans-serif" font-size="12" font-weight="600" fill="#38BDF8">计算与调度层</text>

    <!-- Flink -->
    <g transform="translate(100, 30)">
      <rect width="360" height="55" rx="8" fill="#1E293B" stroke="#F43F5E" stroke-width="1.5"/>
      <circle cx="35" cy="27" r="12" fill="#F43F5E" opacity="0.2"/>
      <text x="35" y="32" font-family="system-ui, sans-serif" font-size="14" fill="#F43F5E" font-weight="bold" text-anchor="middle">~</text>
      <text x="65" y="26" font-family="system-ui, sans-serif" font-size="18" font-weight="700" fill="#F8FAFC">Flink 实时计算集群</text>
      <text x="65" y="44" font-family="system-ui, sans-serif" font-size="12" fill="#94A3B8">Stream 作业 / 毫秒级流处理</text>
    </g>

    <!-- Spark -->
    <g transform="translate(520, 30)">
      <rect width="360" height="55" rx="8" fill="#1E293B" stroke="#EA580C" stroke-width="1.5"/>
      <circle cx="35" cy="27" r="12" fill="#EA580C" opacity="0.2"/>
      <text x="35" y="32" font-family="system-ui, sans-serif" font-size="14" fill="#EA580C" font-weight="bold" text-anchor="middle">◆</text>
      <text x="65" y="26" font-family="system-ui, sans-serif" font-size="18" font-weight="700" fill="#F8FAFC">Spark 离线计算集群</text>
      <text x="65" y="44" font-family="system-ui, sans-serif" font-size="12" fill="#94A3B8">Batch 批处理 / 大规模数据分析</text>
    </g>

    <!-- YARN -->
    <g transform="translate(940, 30)">
      <rect width="460" height="55" rx="8" fill="#0F172A" stroke="#38BDF8" stroke-width="2"/>
      <circle cx="35" cy="27" r="12" fill="#38BDF8" opacity="0.2"/>
      <text x="35" y="32" font-family="system-ui, sans-serif" font-size="14" fill="#38BDF8" font-weight="bold" text-anchor="middle">☰</text>
      <text x="65" y="26" font-family="system-ui, sans-serif" font-size="18" font-weight="700" fill="#38BDF8">YARN 统一资源调度</text>
      <text x="65" y="44" font-family="system-ui, sans-serif" font-size="12" fill="#E2E8F0">Capacity Scheduler / 配合内核级内存深度管控</text>
    </g>
  </g>

  <!-- ==================== 层级 2：控制与安全层 ==================== -->
  
  <!-- 左侧：大数据作业诊断平台 -->
  <g transform="translate(50, 320)" filter="url(#dropShadow)">
    <rect width="350" height="310" rx="12" fill="url(#diagnosticGrad)" stroke="#6366F1" stroke-width="2"/>
    <rect x="0" y="0" width="140" height="30" rx="6" fill="#4338CA"/>
    <text x="15" y="20" font-family="system-ui, sans-serif" font-size="12" font-weight="600" fill="#A5B4FC">智能化支撑组件</text>
    
    <text x="30" y="70" font-family="system-ui, sans-serif" font-size="22" font-weight="700" fill="#FFFFFF">大数据作业诊断平台</text>
    <path d="M 30,85 L 320,85" stroke="#4338CA" stroke-width="1"/>
    
    <g transform="translate(30, 115)">
      <rect width="290" height="40" rx="6" fill="#1E1B4B" stroke="#4F46E5" stroke-width="1"/>
      <text x="15" y="25" font-family="system-ui, sans-serif" font-size="14" font-weight="600" fill="#818CF8">🧠 AI 运行优化与智能诊断</text>
    </g>
    <g transform="translate(30, 170)">
      <rect width="290" height="40" rx="6" fill="#1E1B4B" stroke="#4F46E5" stroke-width="1"/>
      <text x="15" y="25" font-family="system-ui, sans-serif" font-size="14" font-weight="600" fill="#818CF8">📊 Spark/Flink 作业全息分析</text>
    </g>
    <g transform="translate(30, 225)">
      <rect width="290" height="40" rx="6" fill="#1E1B4B" stroke="#4F46E5" stroke-width="1"/>
      <text x="15" y="25" font-family="system-ui, sans-serif" font-size="14" font-weight="600" fill="#818CF8">💡 数据倾斜与内存优化建议</text>
    </g>
  </g>

  <!-- 中间：Ambari 联邦管控与基础设施 -->
  <g transform="translate(430, 320)" filter="url(#dropShadow)">
    <rect width="740" height="310" rx="12" fill="url(#layerGrad)" stroke="#475569" stroke-width="1.5"/>
    <rect x="0" y="0" width="150" height="30" rx="6" fill="#334155"/>
    <text x="15" y="20" font-family="system-ui, sans-serif" font-size="12" font-weight="600" fill="#CBD5E1">集群管理与安全中心</text>

    <!-- Ambari 控制域分工 -->
    <g transform="translate(20, 50)">
      <!-- Ambari 1 -->
      <g transform="translate(0, 0)">
        <rect width="340" height="100" rx="8" fill="url(#ambari1Grad)" stroke="#2563EB" stroke-width="1.5"/>
        <rect x="15" y="15" width="80" height="24" rx="4" fill="#2563EB"/>
        <text x="25" y="31" font-family="system-ui, sans-serif" font-size="12" font-weight="bold" fill="#FFF">实例 01</text>
        <text x="110" y="33" font-family="system-ui, sans-serif" font-size="18" font-weight="800" fill="#F8FAFC">Ambari 控制台 - A</text>
        <path d="M 15,55 L 325,55" stroke="#2563EB" stroke-width="1" stroke-dasharray="2,2"/>
        <text x="15" y="80" font-family="system-ui, sans-serif" font-size="14" font-weight="600" fill="#93C5FD">➔ 核心纳管域：Cluster01, Cluster02</text>
      </g>

      <!-- Ambari 2 -->
      <g transform="translate(360, 0)">
        <rect width="340" height="100" rx="8" fill="url(#ambari2Grad)" stroke="#0284C7" stroke-width="1.5"/>
        <rect x="15" y="15" width="80" height="24" rx="4" fill="#0284C7"/>
        <text x="25" y="31" font-family="system-ui, sans-serif" font-size="12" font-weight="bold" fill="#FFF">实例 02</text>
        <text x="110" y="33" font-family="system-ui, sans-serif" font-size="18" font-weight="800" fill="#F8FAFC">Ambari 控制台 - B</text>
        <path d="M 15,55 L 325,55" stroke="#0284C7" stroke-width="1" stroke-dasharray="2,2"/>
        <text x="15" y="80" font-family="system-ui, sans-serif" font-size="14" font-weight="600" fill="#7DD3FC">➔ 核心纳管域：Cluster03, 04, 05, 06</text>
      </g>
    </g>

    <!-- 基础公共组件 -->
    <g transform="translate(20, 175)">
      <rect width="700" height="115" rx="8" fill="#0F172A" stroke="#334155" stroke-width="1"/>
      <text x="20" y="25" font-family="system-ui, sans-serif" font-size="14" font-weight="bold" fill="#94A3B8">共享公用基础设施服务层 (Cross-Cluster Services)</text>
      
      <g transform="translate(20, 45)">
        <rect width="310" height="50" rx="6" fill="#1E293B" stroke="#10B981" stroke-width="1"/>
        <text x="15" y="31" font-family="system-ui, sans-serif" font-size="14" font-weight="700" fill="#F8FAFC">🔐 FreeIPA + Kerberos 统一安全认证</text>
      </g>
      
      <g transform="translate(345, 45)">
        <rect width="160" height="50" rx="6" fill="#1E293B" stroke="#10B981" stroke-width="1"/>
        <text x="15" y="31" font-family="system-ui, sans-serif" font-size="14" font-weight="700" fill="#F8FAFC">🛡️ Ranger 权限管理</text>
      </g>

      <g transform="translate(520, 45)">
        <rect width="160" height="50" rx="6" fill="#1E293B" stroke="#64748B" stroke-width="1"/>
        <text x="10" y="22" font-family="system-ui, sans-serif" font-size="12" font-weight="700" fill="#E2E8F0">🌐 ZooKeeper 协同</text>
        <text x="10" y="40" font-family="system-ui, sans-serif" font-size="11" font-weight="600" fill="#94A3B8">📂 JN 元数据节点集群</text>
      </g>
    </g>
  </g>

  <!-- 右侧：监控与告警平台 -->
  <g transform="translate(1200, 320)" filter="url(#dropShadow)">
    <rect width="350" height="310" rx="12" fill="url(#monitorGrad)" stroke="#EF4444" stroke-width="2"/>
    <rect x="0" y="0" width="140" height="30" rx="6" fill="#991B1B"/>
    <text x="15" y="20" font-family="system-ui, sans-serif" font-size="12" font-weight="600" fill="#FCA5A5">企业级立体可观测性</text>
    
    <text x="30" y="70" font-family="system-ui, sans-serif" font-size="22" font-weight="700" fill="#FFFFFF">监控与告警平台</text>
    <path d="M 30,85 L 320,85" stroke="#991B1B" stroke-width="1"/>

    <g transform="translate(30, 105)">
      <rect width="135" height="40" rx="6" fill="#2D1515" stroke="#DC2626" stroke-width="1"/>
      <text x="15" y="25" font-family="system-ui, sans-serif" font-size="13" font-weight="700" fill="#FCA5A5">📈 Prometheus</text>
    </g>
    <g transform="translate(180, 105)">
      <rect width="140" height="40" rx="6" fill="#2D1515" stroke="#DC2626" stroke-width="1"/>
      <text x="12" y="25" font-family="system-ui, sans-serif" font-size="13" font-weight="700" fill="#FCA5A5">☁️ CortexMetrics</text>
    </g>
    <g transform="translate(30, 160)">
      <rect width="290" height="40" rx="6" fill="#2D1515" stroke="#EAB308" stroke-width="1"/>
      <text x="15" y="25" font-family="system-ui, sans-serif" font-size="14" font-weight="700" fill="#FEF08A">📊 Grafana 统一数据看板</text>
    </g>
    <g transform="translate(30, 215)">
      <rect width="290" height="70" rx="6" fill="#450A0A" stroke="#EF4444" stroke-width="1.5"/>
      <text x="15" y="25" font-family="system-ui, sans-serif" font-size="14" font-weight="800" fill="#FCA5A5">🚨 智能告警响应域</text>
      <text x="15" y="45" font-family="system-ui, sans-serif" font-size="12" fill="#F87171"> 统一告警API</text>
    </g>
  </g>

  <!-- ==================== 新增：YARN 弹性内存 Cgroup 超卖抽象层 ==================== -->
  <g transform="translate(50, 660)" filter="url(#dropShadow)">
    <rect width="1500" height="90" rx="10" fill="url(#cgroupGrad)" stroke="#14B8A6" stroke-width="2"/>
    <circle cx="45" cy="45" r="22" fill="#0D9488"/>
    <text x="45" y="52" font-family="system-ui, sans-serif" font-size="22" fill="#2DD4BF" text-anchor="middle">⚙️</text>
    
    <text x="85" y="38" font-family="system-ui, sans-serif" font-size="20" font-weight="800" fill="#FFFFFF">YARN 弹性内存隔离与内核资源超卖层 (Linux Cgroups Resource Virtualization)</text>
    <text x="85" y="62" font-family="system-ui, sans-serif" font-size="13" fill="#99F6E4">物理边界锁定：防止 Flink/Spark 突发内存剧增击穿主机物理内存，确保 HDFS 混部 DataNode 元数据与 I/O 进程安全稳定性</text>

    <!-- 超卖可视化指标卡 -->
    <g transform="translate(1120, 18)">
      <rect width="350" height="54" rx="6" fill="#115E59" stroke="#2DD4BF" stroke-width="1.5"/>
      <!-- 进度条背景 -->
      <rect x="15" y="30" width="220" height="12" rx="4" fill="#042F2E"/>
      <!-- 100% 物理内存 -->
      <rect x="15" y="30" width="190" height="12" rx="4" fill="#0D9488"/>
      <!-- 15% 超卖突发 -->
      <rect x="205" y="30" width="30" height="12" rx="4" fill="#F59E0B" filter="url(#glow)"/>
      
      <text x="15" y="20" font-family="system-ui, sans-serif" font-size="13" font-weight="800" fill="#CCFBF1">YARN 虚拟总内存池容量</text>
      <text x="245" y="22" font-family="system-ui, sans-serif" font-size="18" font-weight="900" fill="#F59E0B">↑ 超卖 +15%</text>
      <text x="245" y="42" font-family="system-ui, sans-serif" font-size="11" fill="#99F6E4">提升整体集群算力产出</text>
    </g>
  </g>

  <!-- ==================== 层级 3：数据存储与物理资源底座 ==================== -->
  <g transform="translate(50, 780)" filter="url(#dropShadow)">
    <rect width="1500" height="420" rx="12" fill="url(#layerGrad)" stroke="#475569" stroke-width="2"/>
    
    <!-- 底部物理层条幅 -->
    <rect x="0" y="360" width="1500" height="60" rx="0" fill="#1E293B" stroke="#475569" stroke-width="1"/>
    <text x="750" y="398" font-family="system-ui, sans-serif" font-size="22" font-weight="800" fill="#38BDF8" text-anchor="middle" letter-spacing="2">
      🧱 1200台 高配数据服务器 · 开启 Linux Kernel Cgroup 进程硬隔离（物理内存 100% 强保护）
    </text>

    <!-- HDFS 联邦集群顶层架构说明 -->
    <g transform="translate(30, 25)">
      <text x="0" y="15" font-family="system-ui, sans-serif" font-size="22" font-weight="800" fill="#FFFFFF">HDFS Federation (六大集群联邦机制)</text>
      <text x="0" y="38" font-family="system-ui, sans-serif" font-size="13" fill="#94A3B8">共享物理硬件算力底座，利用 Cgroups 动态调配各 Block Pool 与计算容器的内存挤占上限</text>
    </g>

    <!-- 归属边界虚线框标注 -->
    <!-- 框1：Ambari 1 管控范围 -->
    <rect x="25" y="95" width="470" height="245" rx="8" fill="none" stroke="#2563EB" stroke-width="1.5" stroke-dasharray="6,6"/>
    <text x="40" y="120" font-family="system-ui, sans-serif" font-size="12" font-weight="bold" fill="#60A5FA">AMBARI-1 管控集群域</text>

    <!-- 框2：Ambari 2 管控范围 -->
    <rect x="515" y="95" width="960" height="245" rx="8" fill="none" stroke="#0284C7" stroke-width="1.5" stroke-dasharray="6,6"/>
    <text x="530" y="120" font-family="system-ui, sans-serif" font-size="12" font-weight="bold" fill="#7DD3FC">AMBARI-2 管控集群域</text>

    <!-- 联邦子集群卡片组 -->
    <g transform="translate(40, 145)">
      
      <!-- Cluster 01 -->
      <g transform="translate(0, 0)">
        <rect width="210" height="175" rx="8" fill="#1E293B" stroke="#3B82F6" stroke-width="2"/>
        <rect x="15" y="15" width="45" height="45" rx="6" fill="#3B82F6" opacity="0.2"/>
        <text x="37" y="43" font-family="system-ui, sans-serif" font-size="22" fill="#3B82F6" font-weight="bold" text-anchor="middle">🗄️</text>
        <text x="75" y="32" font-family="system-ui, sans-serif" font-size="16" font-weight="800" fill="#F8FAFC">Cluster01</text>
        <text x="75" y="50" font-family="system-ui, sans-serif" font-size="13" font-weight="bold" fill="#60A5FA">核心业务数据</text>
        <path d="M 15,75 L 195,75" stroke="#334155" stroke-width="1"/>
        <text x="15" y="95" font-family="system-ui, sans-serif" font-size="12" fill="#94A3B8">策略: 3副本高可靠</text>
        <text x="15" y="115" font-family="system-ui, sans-serif" font-size="12" fill="#94A3B8">调度: 共享超卖资源</text>
        <rect x="15" y="138" width="180" height="22" rx="4" fill="#1E3A8A"/>
        <text x="25" y="153" font-family="system-ui, sans-serif" font-size="11" font-weight="bold" fill="#93C5FD">● 命名空间 NS1</text>
      </g>

      <!-- Cluster 02 -->
      <g transform="translate(230, 0)">
        <rect width="210" height="175" rx="8" fill="#1E293B" stroke="#3B82F6" stroke-width="2"/>
        <rect x="15" y="15" width="45" height="45" rx="6" fill="#3B82F6" opacity="0.2"/>
        <text x="37" y="43" font-family="system-ui, sans-serif" font-size="22" fill="#3B82F6" font-weight="bold" text-anchor="middle">🗄️</text>
        <text x="75" y="32" font-family="system-ui, sans-serif" font-size="16" font-weight="800" fill="#F8FAFC">Cluster02</text>
        <text x="75" y="50" font-family="system-ui, sans-serif" font-size="13" font-weight="bold" fill="#60A5FA">核心业务数据</text>
        <path d="M 15,75 L 195,75" stroke="#334155" stroke-width="1"/>
        <text x="15" y="95" font-family="system-ui, sans-serif" font-size="12" fill="#94A3B8">策略: 3副本高可靠</text>
        <text x="15" y="115" font-family="system-ui, sans-serif" font-size="12" fill="#94A3B8">调度: 共享超卖资源</text>
        <rect x="15" y="138" width="180" height="22" rx="4" fill="#1E3A8A"/>
        <text x="25" y="153" font-family="system-ui, sans-serif" font-size="11" font-weight="bold" fill="#93C5FD">● 命名空间 NS2</text>
      </g>

      <!-- Cluster 03 -->
      <g transform="translate(490, 0)">
        <rect width="210" height="175" rx="8" fill="#1E293B" stroke="#0284C7" stroke-width="2"/>
        <rect x="15" y="15" width="45" height="45" rx="6" fill="#0284C7" opacity="0.2"/>
        <text x="37" y="43" font-family="system-ui, sans-serif" font-size="22" fill="#0284C7" font-weight="bold" text-anchor="middle">🗄️</text>
        <text x="75" y="32" font-family="system-ui, sans-serif" font-size="16" font-weight="800" fill="#F8FAFC">Cluster03</text>
        <text x="75" y="50" font-family="system-ui, sans-serif" font-size="13" font-weight="bold" fill="#38BDF8">通用日志/中台</text>
        <path d="M 15,75 L 195,75" stroke="#334155" stroke-width="1"/>
        <text x="15" y="95" font-family="system-ui, sans-serif" font-size="12" fill="#94A3B8">策略: 3副本数据池</text>
        <text x="15" y="115" font-family="system-ui, sans-serif" font-size="12" fill="#94A3B8">调度: 共享超卖资源</text>
        <rect x="15" y="138" width="180" height="22" rx="4" fill="#0C4A6E"/>
        <text x="25" y="153" font-family="system-ui, sans-serif" font-size="11" font-weight="bold" fill="#7DD3FC">● 命名空间 NS3</text>
      </g>

      <!-- Cluster 04 -->
      <g transform="translate(720, 0)">
        <rect width="210" height="175" rx="8" fill="#1E293B" stroke="#0284C7" stroke-width="2"/>
        <rect x="15" y="15" width="45" height="45" rx="6" fill="#0284C7" opacity="0.2"/>
        <text x="37" y="43" font-family="system-ui, sans-serif" font-size="22" fill="#0284C7" font-weight="bold" text-anchor="middle">🗄️</text>
        <text x="75" y="32" font-family="system-ui, sans-serif" font-size="16" font-weight="800" fill="#F8FAFC">Cluster04</text>
        <text x="75" y="50" font-family="system-ui, sans-serif" font-size="13" font-weight="bold" fill="#38BDF8">临时/备用</text>
        <path d="M 15,75 L 195,75" stroke="#334155" stroke-width="1"/>
        <text x="15" y="95" font-family="system-ui, sans-serif" font-size="12" fill="#94A3B8">策略: 3副本数据池</text>
        <text x="15" y="115" font-family="system-ui, sans-serif" font-size="12" fill="#94A3B8">调度: 共享超卖资源</text>
        <rect x="15" y="138" width="180" height="22" rx="4" fill="#0C4A6E"/>
        <text x="25" y="153" font-family="system-ui, sans-serif" font-size="11" font-weight="bold" fill="#7DD3FC">● 命名空间 NS4</text>
      </g>

      <!-- Cluster 05 -->
      <g transform="translate(950, 0)">
        <rect width="210" height="175" rx="8" fill="#1E293B" stroke="#0284C7" stroke-width="2"/>
        <rect x="15" y="15" width="45" height="45" rx="6" fill="#0284C7" opacity="0.2"/>
        <text x="37" y="43" font-family="system-ui, sans-serif" font-size="22" fill="#0284C7" font-weight="bold" text-anchor="middle">🗄️</text>
        <text x="75" y="32" font-family="system-ui, sans-serif" font-size="16" font-weight="800" fill="#F8FAFC">Cluster05</text>
        <text x="75" y="50" font-family="system-ui, sans-serif" font-size="13" font-weight="bold" fill="#38BDF8">时实数仓/数据湖</text>
        <path d="M 15,75 L 195,75" stroke="#334155" stroke-width="1"/>
        <text x="15" y="95" font-family="system-ui, sans-serif" font-size="12" fill="#94A3B8">策略: 动态清洗缓冲</text>
        <text x="15" y="115" font-family="system-ui, sans-serif" font-size="12" fill="#94A3B8">调度: 共享超卖资源</text>
        <rect x="15" y="138" width="180" height="22" rx="4" fill="#0C4A6E"/>
        <text x="25" y="153" font-family="system-ui, sans-serif" font-size="11" font-weight="bold" fill="#7DD3FC">● 命名空间 NS5</text>
      </g>

      <!-- Cluster 06 (EC 冷存储) -->
      <g transform="translate(1180, 0)" filter="url(#glow)">
        <rect width="220" height="175" rx="8" fill="url(#ecGrad)" stroke="#34D399" stroke-width="2.5"/>
        <rect x="15" y="15" width="45" height="45" rx="6" fill="#34D399" opacity="0.3"/>
        <text x="37" y="44" font-family="system-ui, sans-serif" font-size="24" fill="#A7F3D0" font-weight="bold" text-anchor="middle">❄️</text>
        <text x="75" y="32" font-family="system-ui, sans-serif" font-size="16" font-weight="900" fill="#A7F3D0">Cluster06 EC</text>
        <text x="75" y="52" font-family="system-ui, sans-serif" font-size="13" font-weight="bold" fill="#34D399">冷存储集群</text>
        <path d="M 15,75 L 205,75" stroke="#064E3B" stroke-width="1.5"/>
        <text x="15" y="93" font-family="system-ui, sans-serif" font-size="11" fill="#E2E8F0">策略: 纠删码 EC 存储</text>
        <text x="15" y="113" font-family="system-ui, sans-serif" font-size="11" fill="#E2E8F0">内存调优: 锁死低内存阈值</text>
        <rect x="15" y="138" width="190" height="22" rx="4" fill="#064E3B"/>
        <text x="25" y="153" font-family="system-ui, sans-serif" font-size="11" font-weight="bold" fill="#34D399">● 节省50%空间 / NS6</text>
      </g>
      
    </g>
  </g>

</svg>
